<svg id="svg" version="1.1" xmlns="http://www.w3.org/2000/svg" xmlns:xlink="http://www.w3.org/1999/xlink" width="400" height="400" viewBox="0, 0, 400,400"><g id="svgg"><path id="path0" d="M164.502 130.664 C 164.088 131.122,163.820 132.180,163.638 134.081 C 162.639 144.538,163.026 145.041,175.900 149.989 C 181.081 151.980,181.231 152.140,184.209 158.833 C 195.600 184.439,197.759 191.386,198.509 204.833 C 198.815 210.329,197.567 231.877,196.905 232.540 C 196.702 232.742,196.435 229.450,195.660 217.229 C 193.859 188.834,191.123 177.123,182.447 160.667 C 177.838 151.924,177.467 151.607,166.132 146.728 C 146.456 138.258,133.578 134.266,132.013 136.151 C 131.413 136.874,131.759 137.589,135.295 142.938 C 144.388 156.691,147.116 163.231,151.309 181.333 C 154.459 194.929,154.568 195.111,161.620 198.538 C 171.138 203.163,181.574 209.072,185.924 212.297 C 190.515 215.702,191.723 218.343,192.801 227.333 C 193.098 229.808,193.405 232.321,193.483 232.917 C 193.672 234.358,193.387 234.271,192.033 232.475 C 186.412 225.015,177.438 217.542,171.741 215.579 C 163.970 212.900,159.026 215.207,147.482 226.895 C 139.559 234.917,139.836 234.729,140.098 231.914 C 141.082 221.378,147.123 214.250,157.397 211.501 C 168.553 208.515,174.905 210.090,182.125 217.630 C 188.771 224.572,189.903 225.667,190.429 225.667 C 192.779 225.667,191.063 219.386,187.497 214.936 C 178.861 204.159,160.880 202.813,140.333 211.406 C 129.818 215.804,128.389 216.023,123.344 214.008 C 121.425 213.241,117.150 211.584,113.844 210.325 C 110.538 209.066,105.433 207.114,102.500 205.987 C 99.567 204.860,96.749 203.785,96.239 203.599 C 93.218 202.496,107.395 196.294,117.757 194.185 C 126.128 192.482,133.175 192.730,147.227 195.222 C 157.108 196.975,154.263 192.628,143.484 189.505 C 133.755 186.685,120.830 188.217,105.009 194.064 C 92.750 198.595,88.591 201.604,92.083 203.417 C 92.771 203.773,93.333 204.265,93.333 204.509 C 93.333 204.752,94.771 206.575,96.529 208.559 C 100.654 213.216,101.786 214.824,101.242 215.254 C 100.186 216.089,94.247 217.686,86.667 219.174 C 78.989 220.680,79.025 219.516,86.157 235.667 C 92.279 249.530,95.469 256.852,97.195 261.000 C 100.519 268.986,101.127 268.982,125.000 260.828 C 139.351 255.927,180.716 240.674,185.770 238.421 L 187.706 237.558 188.418 238.270 C 189.309 239.161,189.731 238.920,183.667 240.981 C 180.825 241.946,172.275 244.983,164.667 247.730 C 115.258 265.564,106.165 268.568,102.497 268.264 C 98.344 267.919,97.071 265.803,90.003 247.487 C 85.707 236.353,83.799 233.333,81.063 233.333 C 77.700 233.333,76.509 236.292,76.165 245.500 C 75.425 265.286,71.515 265.907,57.909 248.401 C 45.996 233.071,41.050 230.387,30.333 233.433 C 28.592 233.928,25.817 234.714,24.167 235.180 C 18.740 236.711,12.129 236.587,4.368 234.809 C 1.996 234.265,2.107 234.249,1.948 235.162 C 1.846 235.750,2.217 235.904,5.333 236.561 C 13.284 238.236,18.987 238.220,25.167 236.504 C 34.137 234.014,34.633 233.917,37.665 234.062 C 43.557 234.343,47.270 237.357,56.894 249.667 C 65.295 260.411,68.685 263.072,72.621 262.012 C 76.120 261.070,77.141 257.888,77.655 246.333 C 77.991 238.764,78.456 236.476,79.886 235.352 C 82.216 233.518,84.019 236.278,89.127 249.500 C 98.521 273.816,97.240 273.356,126.667 262.988 C 129.692 261.922,133.967 260.423,136.167 259.658 C 138.367 258.893,142.342 257.467,145.000 256.490 C 154.777 252.896,175.381 245.518,182.795 242.956 L 190.424 240.320 193.485 243.577 C 195.169 245.368,197.926 248.352,199.613 250.209 C 205.643 256.847,206.300 256.939,217.056 252.644 C 230.941 247.101,241.942 245.539,275.667 244.325 C 289.674 243.820,288.987 244.174,291.632 236.097 C 295.474 224.367,299.069 220.407,305.222 221.130 C 309.880 221.678,311.723 223.542,316.018 232.053 C 322.441 244.782,325.738 247.920,332.357 247.604 C 340.225 247.227,346.091 241.555,352.556 228.070 C 357.754 217.229,358.995 214.778,360.327 212.717 C 368.880 199.483,382.923 201.581,394.984 217.894 C 397.158 220.834,397.544 221.208,398.068 220.880 C 398.885 220.370,398.991 220.586,395.926 216.525 C 389.064 207.430,382.704 203.175,375.333 202.748 C 366.153 202.216,361.350 206.223,354.804 219.875 C 347.801 234.479,346.680 236.455,343.307 240.142 C 339.692 244.093,334.334 246.698,330.813 246.216 C 325.880 245.539,322.773 242.094,317.325 231.255 C 312.487 221.631,310.271 219.669,304.237 219.665 C 297.548 219.660,294.230 223.346,290.341 235.105 C 287.790 242.815,288.451 242.455,276.167 242.822 C 242.956 243.814,230.159 245.651,215.667 251.503 C 206.280 255.293,206.536 255.360,199.000 247.138 C 196.158 244.037,194.433 241.945,195.167 242.489 C 196.849 243.738,197.353 244.237,200.165 247.437 C 204.407 252.266,205.447 252.469,213.234 249.989 C 229.342 244.858,242.064 243.085,273.045 241.651 C 283.466 241.168,286.871 240.082,285.373 237.719 C 283.694 235.070,226.041 240.541,211.964 244.685 C 207.755 245.924,206.203 245.528,202.892 242.370 C 199.325 238.968,199.369 238.483,203.447 236.290 C 218.906 227.976,239.637 220.961,263.000 216.137 C 269.807 214.732,271.054 214.689,271.670 215.840 C 273.092 218.497,264.975 222.871,253.167 225.812 C 248.909 226.872,240.897 228.336,231.167 229.831 C 217.627 231.911,214.580 232.583,214.031 233.608 C 212.999 235.537,216.296 235.582,230.333 233.833 C 251.437 231.203,258.411 229.589,268.833 224.923 C 273.875 222.665,275.000 222.655,275.000 224.868 C 275.000 229.324,271.987 230.375,255.055 231.828 C 224.554 234.445,203.528 239.397,208.408 242.814 C 209.546 243.612,211.749 243.436,216.667 242.154 C 236.739 236.923,253.972 235.176,272.333 236.509 C 280.881 237.129,283.312 235.581,280.995 230.990 C 279.285 227.603,278.721 225.863,277.697 220.819 C 276.429 214.572,275.546 213.333,272.364 213.333 C 271.819 213.333,271.278 213.181,271.163 212.995 C 270.389 211.742,257.687 204.485,250.857 201.392 C 242.551 197.631,242.035 197.830,228.740 209.893 C 222.913 215.179,217.651 219.877,210.667 226.028 C 206.816 229.420,200.841 234.321,200.550 234.327 C 198.539 234.370,222.113 213.035,251.333 188.367 C 266.130 175.876,265.370 176.913,261.917 173.914 C 255.899 168.688,256.123 168.630,248.254 177.422 C 245.273 180.753,239.850 186.709,236.204 190.656 C 229.632 197.771,228.605 198.873,222.841 205.000 C 221.203 206.742,218.731 209.372,217.348 210.846 C 209.630 219.069,204.542 224.320,204.415 224.193 C 204.102 223.880,210.051 216.273,222.160 201.500 C 239.871 179.893,251.661 164.212,251.665 162.258 C 251.668 161.096,244.692 158.619,241.264 158.565 C 237.201 158.500,234.465 162.514,222.337 186.333 C 214.134 202.443,212.323 205.786,209.088 210.797 C 207.060 213.936,204.667 217.266,204.667 216.947 C 204.667 216.865,205.351 214.780,206.188 212.315 C 214.279 188.480,218.643 168.730,219.225 153.314 L 219.436 147.730 218.550 146.909 C 217.103 145.568,213.551 144.362,196.833 139.536 C 188.431 137.111,180.915 134.717,171.721 131.537 C 166.790 129.832,165.407 129.665,164.502 130.664 M171.864 133.206 C 179.771 136.035,185.753 137.939,196.333 140.997 C 211.958 145.512,217.191 147.293,217.820 148.311 C 218.057 148.695,217.462 159.268,216.965 163.500 C 215.747 173.863,210.473 194.693,204.787 211.595 C 202.591 218.123,202.332 219.732,203.441 219.943 C 205.643 220.361,212.138 209.867,223.314 187.833 C 236.042 162.738,238.446 159.327,242.763 160.232 C 245.050 160.712,249.020 161.904,249.618 162.290 C 250.664 162.966,239.221 178.195,220.657 200.833 C 202.807 222.600,199.860 226.789,201.856 227.555 C 203.238 228.085,209.238 222.111,231.868 197.671 C 232.803 196.660,234.272 195.083,235.131 194.167 C 235.991 193.250,239.875 188.985,243.764 184.690 C 247.652 180.394,251.974 175.680,253.369 174.214 L 255.905 171.547 257.369 172.418 C 259.040 173.412,262.333 176.239,262.333 176.679 C 262.333 176.840,260.046 178.886,257.250 181.225 C 254.454 183.565,251.998 185.633,251.793 185.823 C 251.587 186.012,249.712 187.615,247.626 189.384 C 220.506 212.392,204.080 227.190,199.871 232.408 C 198.314 234.338,198.061 236.014,199.282 236.314 L 200.064 236.506 199.365 237.138 C 197.800 238.554,199.059 241.335,202.662 244.419 C 205.859 247.155,207.725 247.447,213.000 246.034 C 223.550 243.209,258.251 239.097,277.032 238.446 C 285.006 238.170,285.933 238.948,278.667 239.820 C 277.842 239.918,273.567 240.153,269.167 240.341 C 242.292 241.487,225.475 243.997,211.167 248.996 C 205.753 250.888,205.729 250.879,200.167 245.190 C 196.528 241.469,195.444 240.566,193.408 239.564 C 189.695 237.735,188.997 237.060,189.647 235.923 C 190.473 234.476,189.211 232.553,184.000 227.315 C 172.170 215.424,165.814 214.700,155.333 224.049 C 144.218 233.965,139.672 237.325,137.954 236.893 C 136.903 236.630,134.391 234.902,130.320 231.642 C 114.398 218.895,106.099 213.425,104.739 214.784 C 102.307 217.217,111.676 225.192,131.500 237.564 C 139.678 242.667,142.195 242.020,155.483 231.402 C 166.722 222.422,169.102 222.047,176.951 228.023 C 179.380 229.873,186.069 235.825,186.255 236.302 C 186.527 237.003,130.864 257.509,115.333 262.428 C 101.340 266.861,101.374 266.866,98.521 260.080 C 97.616 257.928,94.035 249.717,90.563 241.833 C 81.586 221.447,81.723 221.820,83.083 221.507 C 83.496 221.412,86.458 220.795,89.667 220.136 C 98.784 218.262,103.333 216.570,103.333 215.053 C 103.333 214.352,100.409 210.439,97.920 207.810 C 96.458 206.264,95.328 205.000,95.411 205.000 C 95.494 205.000,102.222 207.566,110.364 210.702 C 129.982 218.260,127.989 218.076,139.580 213.395 C 163.747 203.635,181.880 205.857,188.456 219.385 C 190.449 223.486,190.401 224.240,188.300 221.833 C 179.248 211.469,174.613 208.667,166.520 208.667 C 150.580 208.667,140.180 217.270,138.516 231.834 C 137.827 237.860,139.501 237.339,147.599 229.008 C 164.704 211.411,171.878 211.798,188.886 231.233 C 195.133 238.372,195.711 237.954,194.348 227.287 C 192.571 213.386,190.397 211.291,163.907 197.945 C 155.422 193.670,155.923 194.412,153.026 181.833 C 148.625 162.727,145.674 155.637,136.280 141.593 C 133.467 137.388,133.263 136.901,134.417 137.147 C 134.829 137.235,136.052 137.478,137.134 137.688 C 142.159 138.660,161.869 146.220,171.853 151.004 C 176.699 153.327,177.894 154.863,182.864 165.150 C 190.426 180.802,192.434 190.386,194.321 219.833 C 195.003 230.466,195.487 235.041,196.040 236.074 C 198.127 239.975,199.840 227.803,199.826 209.167 C 199.813 192.779,198.321 186.994,188.132 163.833 C 182.017 149.932,182.681 150.738,175.063 147.982 C 165.305 144.451,164.370 143.352,165.001 136.159 C 165.475 130.746,165.255 130.841,171.864 133.206 M141.725 190.611 C 147.076 192.038,152.194 194.586,148.149 193.809 C 126.837 189.716,107.485 192.424,95.228 201.213 C 93.719 202.295,92.333 202.506,92.333 201.654 C 92.333 200.924,104.300 195.766,110.833 193.679 C 122.831 189.848,134.512 188.688,141.725 190.611 M246.712 201.349 C 250.338 202.570,262.718 209.050,267.644 212.304 C 269.419 213.477,269.435 213.502,268.477 213.592 C 267.940 213.643,264.875 214.217,261.667 214.868 C 240.553 219.149,218.305 226.537,205.130 233.643 C 203.775 234.374,202.667 234.930,202.667 234.878 C 202.667 234.826,203.677 233.969,204.912 232.975 C 208.108 230.401,219.323 220.574,227.333 213.328 C 242.151 199.925,242.269 199.852,246.712 201.349 M274.481 215.784 C 274.973 216.276,275.412 217.303,275.657 218.534 C 277.001 225.280,277.698 227.745,278.989 230.312 C 281.458 235.221,281.857 235.088,265.500 234.806 C 245.660 234.464,236.215 235.532,218.167 240.155 C 211.487 241.866,210.000 242.149,210.000 241.706 C 210.000 241.019,216.178 239.132,223.667 237.531 C 232.580 235.626,240.993 234.514,255.500 233.323 C 271.798 231.985,275.252 230.841,276.310 226.429 C 277.516 221.402,274.769 220.530,267.707 223.699 C 256.922 228.539,248.014 230.372,220.167 233.482 C 216.190 233.927,221.486 232.884,229.333 231.678 C 260.098 226.950,273.738 222.247,273.283 216.523 C 273.146 214.799,273.362 214.665,274.481 215.784 M108.266 217.209 C 111.912 219.529,119.742 225.358,130.000 233.387 C 139.261 240.637,138.606 240.804,154.167 227.200 C 164.683 218.006,168.407 217.170,175.967 222.309 C 179.743 224.877,188.333 233.655,188.333 234.947 C 188.333 235.783,187.484 235.210,184.225 232.177 C 170.705 219.593,167.929 219.449,153.954 230.607 C 140.727 241.167,140.022 241.261,128.795 233.965 C 113.900 224.285,106.000 218.149,106.000 216.259 C 106.000 215.829,106.284 215.948,108.266 217.209 " stroke="none" fill="#000000" fill-rule="evenodd"></path></g></svg>