<svg id="svg" version="1.1" xmlns="http://www.w3.org/2000/svg" xmlns:xlink="http://www.w3.org/1999/xlink" width="400" height="400" viewBox="0, 0, 400,400"><g id="svgg"><path id="path0" d="M133.984 1.459 C 124.570 5.750,123.826 7.621,117.658 42.482 C 114.855 58.328,112.460 71.390,112.335 71.509 C 112.211 71.628,96.816 74.416,78.125 77.705 C 37.413 84.868,38.684 84.583,30.859 88.316 C 11.256 97.667,-1.322 118.844,0.255 139.844 C 0.793 147.009,37.715 356.482,39.501 362.500 C 44.528 379.442,59.770 394.043,77.039 398.459 C 89.240 401.580,87.618 401.800,204.168 381.227 C 326.678 359.601,315.420 362.040,321.503 355.815 C 324.091 353.166,327.079 350.734,328.143 350.410 C 343.741 345.664,358.101 329.095,362.053 311.286 C 367.229 287.967,400.000 96.246,400.000 89.289 C 400.000 66.501,385.573 46.188,364.389 39.150 C 357.764 36.949,147.531 -0.004,141.755 0.017 C 138.957 0.027,135.867 0.601,133.984 1.459 M241.920 31.231 C 295.471 40.674,339.427 48.541,339.600 48.715 C 339.774 48.888,338.524 56.892,336.823 66.502 C 333.075 87.684,333.606 90.625,341.181 90.625 C 346.632 90.625,347.393 88.916,350.750 69.141 C 354.051 49.695,353.521 51.293,356.483 51.869 C 371.700 54.827,385.824 72.838,385.956 89.453 C 385.996 94.421,355.444 270.454,354.601 270.114 C 354.339 270.008,352.626 268.164,350.795 266.016 C 343.866 257.884,330.626 249.470,322.461 248.007 C 318.832 247.357,317.806 255.683,330.078 186.199 C 342.722 114.612,342.623 116.406,333.923 116.406 C 327.613 116.406,328.536 112.952,316.413 181.943 C 310.419 216.054,305.374 244.105,305.201 244.278 C 305.028 244.451,260.985 236.844,207.326 227.374 C 153.668 217.904,108.072 210.156,106.002 210.156 C 102.785 210.156,102.297 209.958,102.642 208.789 C 102.863 208.037,110.452 165.234,119.506 113.672 C 136.116 19.074,136.685 16.184,138.970 14.849 C 141.245 13.519,143.584 13.891,241.920 31.231 M155.748 36.712 C 150.836 38.694,150.085 46.756,154.587 49.165 C 156.437 50.155,305.961 76.563,309.717 76.563 C 315.738 76.563,318.861 68.985,314.520 64.907 C 312.972 63.452,161.778 35.556,157.813 35.993 C 157.598 36.017,156.668 36.341,155.748 36.712 M175.694 74.609 C 171.611 76.828,170.990 82.560,174.480 85.795 C 176.266 87.450,270.635 104.696,277.873 104.690 C 283.720 104.685,286.566 97.905,282.617 93.390 C 280.947 91.480,278.324 90.933,230.078 82.418 C 173.206 72.382,178.416 73.130,175.694 74.609 M109.372 88.086 C 109.370 88.838,103.921 120.334,97.262 158.077 C 82.897 239.509,83.002 237.792,91.928 245.286 L 94.978 247.847 92.574 261.537 L 90.169 275.227 85.905 277.108 C 78.736 280.271,74.694 285.375,73.718 292.495 C 73.252 295.898,73.183 295.965,66.897 299.089 C 60.107 302.464,53.225 308.098,48.332 314.289 C 46.671 316.390,45.312 317.758,45.312 317.328 C 45.312 316.898,38.247 276.525,29.610 227.609 C 12.521 130.815,13.028 134.797,16.479 124.401 C 22.991 104.790,30.990 100.417,74.694 92.583 C 111.196 86.039,109.376 86.275,109.372 88.086 M146.484 104.037 C 144.016 105.402,141.349 108.027,140.213 110.211 C 138.955 112.628,127.344 178.083,127.344 182.757 C 127.344 187.251,130.434 192.381,134.456 194.565 C 135.878 195.337,276.706 220.313,279.636 220.313 C 280.682 220.313,283.060 219.576,284.921 218.675 C 290.941 215.760,291.318 214.547,297.976 176.563 C 304.568 138.953,304.620 138.424,302.123 133.984 C 298.875 128.210,299.753 128.421,224.359 115.213 C 156.349 103.299,149.576 102.327,146.484 104.037 M223.994 129.624 C 259.749 135.929,289.160 141.246,289.353 141.442 C 289.545 141.637,287.159 156.211,284.051 173.828 L 278.400 205.859 276.505 205.601 C 272.038 204.992,141.849 181.953,141.628 181.733 C 141.494 181.599,143.938 167.005,147.059 149.303 L 152.733 117.116 155.859 117.639 C 157.578 117.927,188.239 123.320,223.994 129.624 M212.376 242.608 C 333.536 263.946,329.403 262.919,339.082 274.079 C 362.827 301.459,339.560 344.729,304.102 339.132 C 246.194 329.991,90.808 301.405,89.258 299.607 C 85.851 295.657,88.301 289.844,93.373 289.844 C 94.822 289.844,143.049 298.139,200.543 308.278 C 307.792 327.191,311.682 327.757,318.568 325.430 C 339.721 318.281,342.945 288.115,323.757 276.870 C 318.871 274.007,323.967 274.990,208.972 254.717 C 114.852 238.124,102.716 235.825,101.071 234.281 C 97.290 230.728,99.965 224.219,105.206 224.219 C 106.718 224.219,154.945 232.494,212.376 242.608 M211.443 269.578 C 267.597 279.487,314.506 288.093,315.686 288.703 C 327.173 294.643,322.665 312.424,309.648 312.523 C 306.980 312.543,105.543 277.459,104.766 276.838 C 104.279 276.450,108.516 251.563,109.069 251.563 C 109.220 251.563,155.289 259.670,211.443 269.578 M87.587 315.180 C 89.473 315.746,92.949 316.489,95.313 316.830 L 99.609 317.450 90.553 319.193 C 85.572 320.152,80.002 321.699,78.174 322.631 C 58.796 332.517,59.472 361.694,79.297 371.043 C 87.354 374.843,86.402 374.959,174.924 359.340 L 255.708 345.086 272.859 348.100 C 283.860 350.033,289.490 351.326,288.560 351.706 C 284.964 353.176,95.628 385.938,90.734 385.938 C 50.110 385.938,36.579 330.265,72.798 312.145 L 78.262 309.411 81.210 311.781 C 82.832 313.084,85.702 314.614,87.587 315.180 M178.066 331.414 C 198.444 334.976,214.616 337.977,214.004 338.082 C 213.392 338.187,185.949 343.021,153.020 348.824 C 87.821 360.314,89.599 360.079,85.126 357.797 C 76.162 353.224,75.815 339.974,84.540 335.461 C 86.647 334.372,134.038 325.317,139.063 325.043 C 140.137 324.985,157.688 327.852,178.066 331.414 " stroke="none" fill="#000000" fill-rule="evenodd"></path></g></svg>